<svg xmlns="http://www.w3.org/2000/svg" viewBox="0 0 100 100">
  <defs>
    <linearGradient id="bg" x1="0%" y1="0%" x2="100%" y2="100%">
      <stop offset="0%" style="stop-color:#3178c6"/>
      <stop offset="100%" style="stop-color:#235a9e"/>
    </linearGradient>
    <filter id="shadow" x="-20%" y="-20%" width="140%" height="140%">
      <feDropShadow dx="0" dy="2" stdDeviation="3" flood-color="#000" flood-opacity="0.15"/>
    </filter>
  </defs>
  <!-- Superellipse background -->
  <path d="
    M 50 2
    C 68 2, 79 6, 87 13
    C 94 21, 98 32, 98 50
    C 98 68, 94 79, 87 87
    C 79 94, 68 98, 50 98
    C 32 98, 21 94, 13 87
    C 6 79, 2 68, 2 50
    C 2 32, 6 21, 13 13
    C 21 6, 32 2, 50 2
    Z
  " fill="url(#bg)" filter="url(#shadow)"/>
  <!-- Main text: UT -->
  <text x="50" y="58" font-family="system-ui, -apple-system, 'Segoe UI', sans-serif" font-size="42" font-weight="700" fill="white" text-anchor="middle" letter-spacing="-2">UT</text>
  <!-- Decorative bracket on left -->
  <path d="M 22 32 L 22 47 C 22 49, 24 51, 26 51 L 26 53 C 22 53, 20 50, 20 47 L 20 32 Z" fill="white" opacity="0.6"/>
  <!-- Decorative bracket on right -->
  <path d="M 78 32 L 78 47 C 78 49, 76 51, 74 51 L 74 53 C 78 53, 80 50, 80 47 L 80 32 Z" fill="white" opacity="0.6"/>
  <!-- Small type indicator at bottom -->
  <text x="50" y="74" font-family="system-ui, -apple-system, sans-serif" font-size="10" font-weight="500" fill="white" text-anchor="middle" opacity="0.7" letter-spacing="1">TYPES</text>
</svg>
